# xmcd
#
# Track frame offsets: 
#        150
#        6806
#        26340
#        44210
#        56844
#        73339
#        93037
#        96637
#        115292
#        129122
#        148180
#        158671
#        164954
#        187068
#        206858
#        225433
#        244897
#        270901
#
# Disc length: 3923 seconds
#
# Revision: 0
# Processed by: cddbd v1.5.2PL0 Copyright (c) Steve Scherf et al.
# Submitted via: ExactAudioCopy v0.99pb5
#
DISCID=0b0f5112
DTITLE=The Gothsicles - Industrialites and Magic 
DYEAR=2011
DGENRE=EBM
TTITLE0=I Do What I Do
TTITLE1=B-R-[x]-A-N (Feat. Bryan North Of Xuberx)
TTITLE2=Save Dat Mermaid
TTITLE3=Wearing A Star Trek Uniform, Watching Tony Lechmanski Sleep
TTITLE4=Drunk Cuts
TTITLE5=Voicebox Botox
TTITLE6=WTII Records Is My Favorite Record Label
TTITLE7=My Guy Died (Level 12 Human Sorcerer)
TTITLE8=You Have Found The Hawk's Claw
TTITLE9=Wildness Acts (Feat. Xero Of Critical System Error)
TTITLE10=Baby Jesus vs Baby Genius (Feat. Sega Lugosi)
TTITLE11=Call The Chips To Port
TTITLE12=Save Dat Mermaid (Leæther Strip Remix)
TTITLE13=Drunk Cuts Rmx By Peter Spilles)
TTITLE14=My Guy Died (Level 12 Human Sorcerer) (Yendri Remix)
TTITLE15=B-R-[x]-A-N (Girls You're Both Pretty Mix By Caustic)
TTITLE16=Drunk Cuts (Reaper Mix By Vasi Vallis)
TTITLE17=My Guy Died (Level 12 Human Sorcerer) (Reveling And Leveling 
TTITLE17=Mix By Boole)
EXTD=
EXTT0=
EXTT1=
EXTT2=
EXTT3=
EXTT4=
EXTT5=
EXTT6=
EXTT7=
EXTT8=
EXTT9=
EXTT10=
EXTT11=
EXTT12=
EXTT13=
EXTT14=
EXTT15=
EXTT16=
EXTT17=
PLAYORDER=
